:SAMPLES-PER-SECOND 30
:FULLY-SPECIFIED
:DEGREES
198
root  0.0444229 30.9672 2.63927 -164.773 13.2034 179.253
RightUpLeg  -54.117 -1.29215 4.34764
RightLeg  75.8888 13.8178 -12.0131
RightFoot  -36.6057 1.00447 4.24706
RightToes  -1.16415e-010 -3.18055e-015 -2.98177e-016
Spine  37.8904 -3.67113 15.7263
Spine1  -5.89801 0.124013 -6.01829
HEad  -24.5253 0.15035 -3.16194
LeftShoulder1  -3.88251e-019 9.70628e-020 -3.87848e-018
LeftArm  -4.79746 58.4779 -49.0021
LeftForeArm  -0.37271 -37.3211 8.58972
LeftHand  -2.2863 -6.93433 22.2316
RightShoulder  2.92593 7.11929 15.255
RightArm  -3.41919 -30.6368 24.5776
RightForeArm  -8.3772 54.4347 -38.3198
RightHand  -1.04799 1.68578 -16.8763
LeftUpLeg  -73.6966 8.67576 -7.63253
LeftLeg  81.0274 -11.6132 28.9121
LeftFoot  -13.1636 -0.0387953 -2.1687
LeftToes  1.69338e-011 3.79281e-011 -2.20049e-011
199
root  0.0319759 30.8768 2.01255 -165.368 12.7045 178.915
RightUpLeg  -52.6281 -1.68818 3.52977
RightLeg  76.9174 14.0272 -11.9824
RightFoot  -37.644 1.29931 5.40549
RightToes  -1.16415e-010 -3.18055e-015 -2.98177e-016
Spine  37.6405 -3.62749 15.7068
Spine1  -5.70979 0.35062 -7.98202
HEad  -24.4314 -0.809432 -2.48428
LeftShoulder1  -3.88251e-019 9.70628e-020 -3.87848e-018
LeftArm  -6.58719 59.5992 -49.0247
LeftForeArm  -3.73956 -35.7189 7.91457
LeftHand  -2.71979 -7.46516 25.2082
RightShoulder  2.97245 7.16967 15.4904
RightArm  -4.22953 -29.9804 24.6467
RightForeArm  -10.6948 54.3426 -37.9808
RightHand  -1.25302 1.9328 -19.4758
LeftUpLeg  -75.6096 8.30275 -6.89091
LeftLeg  75.2878 -9.16689 24.7941
LeftFoot  -16.5757 -0.130886 -2.90037
LeftToes  1.69338e-011 3.79281e-011 -2.20049e-011
200
root  -0.00212026 30.722 1.43911 -165.977 12.2518 178.474
RightUpLeg  -51.6386 -1.84638 2.53823
RightLeg  78.5533 14.3478 -12.0101
RightFoot  -38.055 1.66466 6.96302
RightToes  -1.16415e-010 -3.18055e-015 -2.98177e-016
Spine  37.6636 -3.49455 15.1205
Spine1  -5.41212 0.609943 -9.54108
HEad  -24.4047 -1.69519 -2.04007
LeftShoulder1  -3.88251e-019 9.70628e-020 -3.87848e-018
LeftArm  -8.0192 60.1798 -48.8662
LeftForeArm  -7.04395 -33.7281 7.15654
LeftHand  -3.04792 -7.73612 27.5523
RightShoulder  2.92448 7.14742 15.1972
RightArm  -5.30578 -29.6579 25.2274
RightForeArm  -10.3466 53.6961 -36.9813
RightHand  -1.40771 2.16768 -21.1761
LeftUpLeg  -75.9569 7.53502 -6.13202
LeftLeg  68.2668 -7.3629 19.8602
LeftFoot  -18.5297 -0.199335 -3.13536
LeftToes  1.69338e-011 3.79281e-011 -2.20049e-011
201
root  -0.0662967 30.4509 0.855193 -166.819 11.9595 178.023
RightUpLeg  -50.7333 -1.69545 1.41597
RightLeg  80.8266 14.7795 -12.2167
RightFoot  -38.2669 2.08879 8.79659
RightToes  -1.16415e-010 -3.18055e-015 -2.98177e-016
Spine  37.8457 -3.39873 14.2915
Spine1  -4.76484 0.939081 -11.056
HEad  -24.3904 -2.39482 -1.63212
LeftShoulder1  -3.88251e-019 9.70628e-020 -3.87848e-018
LeftArm  -9.19745 60.2304 -48.3729
LeftForeArm  -8.7483 -31.4637 6.43639
LeftHand  -3.09078 -7.49723 28.4195
RightShoulder  2.85444 7.08692 14.8148
RightArm  -6.37586 -29.3311 26.0231
RightForeArm  -8.63765 52.4569 -35.2696
RightHand  -1.48322 2.25385 -22.0388
LeftUpLeg  -74.8322 6.33452 -5.15949
LeftLeg  61.9534 -6.534 16.0126
LeftFoot  -15.4308 -0.121653 -4.41455
LeftToes  1.69338e-011 3.79281e-011 -2.20049e-011
202
root  -0.168565 30.0088 0.211602 -167.833 11.876 177.919
RightUpLeg  -49.6314 -1.30851 0.522077
RightLeg  83.6196 15.3274 -12.4034
RightFoot  -38.9968 2.59303 10.712
RightToes  -1.16415e-010 -3.18055e-015 -2.98177e-016
Spine  37.9182 -3.3033 13.6254
Spine1  -3.88092 1.34704 -12.4367
HEad  -24.1185 -2.76025 -1.15363
LeftShoulder1  -3.88251e-019 9.70628e-020 -3.87848e-018
LeftArm  -10.3261 60.1252 -47.5891
LeftForeArm  -9.20203 -29.4025 5.84728
LeftHand  -3.08555 -7.17297 29.0881
RightShoulder  2.82646 7.08673 14.621
RightArm  -6.93184 -28.7904 26.7022
RightForeArm  -6.82817 50.7305 -33.0672
RightHand  -1.49659 2.19796 -22.3873
LeftUpLeg  -73.9666 5.25313 -4.07015
LeftLeg  59.9998 -6.51982 14.7698
LeftFoot  -8.34543 0.202478 -5.58265
LeftToes  1.69338e-011 3.79281e-011 -2.20049e-011
203
root  -0.304291 29.373 -0.492116 -168.749 11.9126 178.356
RightUpLeg  -48.4528 -0.912451 0.124907
RightLeg  86.8557 15.9749 -12.3374
RightFoot  -40.4696 3.20483 12.5939
RightToes  -1.16415e-010 -3.18055e-015 -2.98177e-016
Spine  37.7193 -3.05659 13.3125
Spine1  -3.22263 1.7038 -13.1554
HEad  -23.672 -2.87869 -0.738996
LeftShoulder1  -3.88251e-019 9.70628e-020 -3.87848e-018
LeftArm  -11.7133 60.1701 -46.8175
LeftForeArm  -9.34974 -27.9329 5.37689
LeftHand  -3.32921 -7.35539 30.8099
RightShoulder  2.828 7.17407 14.487
RightArm  -6.90113 -28.2341 27.1813
RightForeArm  -4.95905 48.8084 -30.8615
RightHand  -1.50873 2.13359 -22.7487
LeftUpLeg  -74.633 5.07871 -3.40479
LeftLeg  63.2413 -7.41192 15.0016
LeftFoot  -3.49917 0.40806 -4.98594
LeftToes  1.69338e-011 3.79281e-011 -2.20049e-011
204
root  -0.440013 28.678 -1.18993 -169.312 11.711 178.828
RightUpLeg  -47.4941 -0.755108 -0.124992
RightLeg  90.0169 16.6186 -12.4308
RightFoot  -41.9842 3.85211 14.3853
RightToes  -1.16415e-010 -3.18055e-015 -2.98177e-016
Spine  37.4952 -2.71255 12.9767
Spine1  -3.08882 1.87337 -13.2919
HEad  -23.5547 -3.10256 -0.425982
LeftShoulder1  -3.88251e-019 9.70628e-020 -3.87848e-018
LeftArm  -13.3641 60.1264 -46.2401
LeftForeArm  -9.72824 -27.0021 5.04202
LeftHand  -3.65884 -7.7332 32.7554
RightShoulder  2.85662 7.29363 14.4875
RightArm  -6.64141 -27.9361 27.2479
RightForeArm  -3.01057 47.0914 -29.094
RightHand  -1.59007 2.22862 -23.6494
LeftUpLeg  -76.172 5.42306 -3.58787
LeftLeg  68.348 -8.78206 15.3353
LeftFoot  -4.27365 0.224399 -2.96905
LeftToes  1.69338e-011 3.79281e-011 -2.20049e-011
205
root  -0.546674 28.1217 -1.81819 -169.453 11.0083 178.761
RightUpLeg  -46.856 -0.893198 -0.696167
RightLeg  92.4062 17.1938 -13.1326
RightFoot  -42.8508 4.42163 16.0565
RightToes  -1.16415e-010 -3.18055e-015 -2.98177e-016
Spine  37.6453 -2.48916 12.2737
Spine1  -3.43822 1.85974 -13.5761
HEad  -24.0283 -3.68681 -0.0620987
LeftShoulder1  -3.88251e-019 9.70628e-020 -3.87848e-018
LeftArm  -15.0511 59.5767 -45.848
LeftForeArm  -10.5356 -26.4389 4.87655
LeftHand  -3.7042 -7.51417 33.6788
RightShoulder  2.94899 7.41033 14.926
RightArm  -6.48406 -27.9755 26.6859
RightForeArm  -1.6648 45.7711 -27.8232
RightHand  -1.74944 2.48937 -25.1245
LeftUpLeg  -77.5684 5.34896 -4.49894
LeftLeg  72.1883 -9.83974 15.3915
LeftFoot  -7.49405 0.0397002 -1.28065
LeftToes  1.69338e-011 3.79281e-011 -2.20049e-011
206
root  -0.638264 27.7175 -2.39005 -169.278 10.0073 178.377
RightUpLeg  -46.3485 -1.19047 -1.50266
RightLeg  94.1191 17.6745 -13.813
RightFoot  -43.3928 4.95493 17.6856
RightToes  -1.16415e-010 -3.18055e-015 -2.98177e-016
Spine  38.11 -2.46545 11.5529
Spine1  -3.99769 1.72189 -14.2443
HEad  -24.8163 -4.49092 0.344736
LeftShoulder1  -3.88251e-019 9.70628e-020 -3.87848e-018
LeftArm  -16.8096 58.5929 -45.8092
LeftForeArm  -11.8227 -26.3705 4.88143
LeftHand  -3.60856 -6.96434 34.2818
RightShoulder  3.08642 7.51773 15.677
RightArm  -6.59252 -28.2438 25.9044
RightForeArm  -1.15852 44.6104 -26.7295
RightHand  -1.91998 2.73251 -26.7089
LeftUpLeg  -78.6406 4.87834 -5.60142
LeftLeg  74.7426 -10.6012 15.0203
LeftFoot  -9.5766 -0.00220107 -0.809491
LeftToes  1.69338e-011 3.79281e-011 -2.20049e-011
207
root  -0.731336 27.3804 -2.91447 -168.94 9.01123 178.124
RightUpLeg  -45.8143 -1.46658 -2.21677
RightLeg  95.5813 18.0009 -13.7637
RightFoot  -44.0923 5.56887 19.4315
RightToes  -1.16415e-010 -3.18055e-015 -2.98177e-016
Spine  38.5215 -2.4993 11.0172
Spine1  -4.28914 1.53523 -14.7809
HEad  -25.6052 -5.15938 0.541841
LeftShoulder1  -3.88251e-019 9.70628e-020 -3.87848e-018
LeftArm  -18.9639 57.6161 -46.4512
LeftForeArm  -13.1268 -27.0226 5.06496
LeftHand  -3.971 -7.42985 36.1214
RightShoulder  3.17823 7.57962 16.1885
RightArm  -7.06115 -28.4816 25.7124
RightForeArm  -0.674991 43.18 -25.4499
RightHand  -2.02317 2.74743 -28.0412
LeftUpLeg  -79.6432 4.52781 -6.58424
LeftLeg  77.0962 -11.2899 14.4638
LeftFoot  -10.7537 -0.0158589 -0.624596
LeftToes  1.69338e-011 3.79281e-011 -2.20049e-011
208
root  -0.821331 27.1139 -3.37872 -168.504 8.11008 178.053
RightUpLeg  -45.251 -1.65856 -2.66569
RightLeg  96.6077 18.1983 -13.5728
RightFoot  -44.7241 6.17004 21.0947
RightToes  -1.16415e-010 -3.18055e-015 -2.98177e-016
Spine  38.7597 -2.43631 10.4161
Spine1  -4.03055 1.39372 -14.8203
HEad  -26.3956 -5.55742 0.464343
LeftShoulder1  -3.88251e-019 9.70628e-020 -3.87848e-018
LeftArm  -21.6418 56.7775 -47.7349
LeftForeArm  -13.6396 -28.3175 5.39123
LeftHand  -4.86941 -9.06248 38.937
RightShoulder  3.18562 7.5715 16.2515
RightArm  -7.86529 -28.4274 26.3166
RightForeArm  0.30542 41.2846 -23.8882
RightHand  -2.04195 2.51077 -29.0895
LeftUpLeg  -80.5411 4.35301 -7.43903
LeftLeg  79.1748 -11.8446 14.029
LeftFoot  -12.4766 -0.0325774 -0.12403
LeftToes  1.69338e-011 3.79281e-011 -2.20049e-011
209
root  -0.905746 26.9783 -3.80824 -167.96 7.32118 178.042
RightUpLeg  -44.643 -1.86293 -2.86308
RightLeg  96.7498 18.3367 -14.0681
RightFoot  -45.0096 6.55723 22.21
RightToes  -1.16415e-010 -3.18055e-015 -2.98177e-016
Spine  38.9787 -2.29822 9.71899
Spine1  -3.44709 1.34748 -14.7049
HEad  -27.2067 -5.85549 0.408817
LeftShoulder1  -3.88251e-019 9.70628e-020 -3.87848e-018
LeftArm  -24.2541 55.8403 -49.0926
LeftForeArm  -13.4065 -30.0217 5.83325
LeftHand  -5.51525 -10.0956 40.9196
RightShoulder  3.17316 7.552 16.2014
RightArm  -8.77721 -28.1412 27.1906
RightForeArm  1.16949 39.0513 -22.1756
RightHand  -2.02496 2.2409 -29.8185
LeftUpLeg  -81.0893 4.0566 -8.07588
LeftLeg  80.4504 -12.165 13.7678
LeftFoot  -14.3458 -0.0366208 0.241826
LeftToes  1.69338e-011 3.79281e-011 -2.20049e-011
210
root  -0.991794 26.9697 -4.2458 -167.313 6.76648 178.057
RightUpLeg  -43.978 -2.13662 -3.01348
RightLeg  96.2388 18.3313 -14.61
RightFoot  -45.2188 6.77329 22.7837
RightToes  -1.16415e-010 -3.18055e-015 -2.98177e-016
Spine  39.2431 -2.16401 9.13312
Spine1  -2.92737 1.38309 -14.9339
HEad  -27.8377 -6.18805 0.586858
LeftShoulder1  -3.88251e-019 9.70628e-020 -3.87848e-018
LeftArm  -26.0969 54.7712 -49.9506
LeftForeArm  -13.1272 -32.1538 6.42409
LeftHand  -5.34762 -9.53744 41.1514
RightShoulder  3.19611 7.59219 16.2863
RightArm  -9.46228 -27.9949 27.9807
RightForeArm  1.35134 36.6658 -20.4531
RightHand  -2.00063 2.09222 -30.0292
LeftUpLeg  -81.2672 3.63632 -8.43797
LeftLeg  81.1066 -12.3214 13.6748
LeftFoot  -15.5201 -0.0368917 0.240337
LeftToes  1.69338e-011 3.79281e-011 -2.20049e-011
211
root  -1.07995 27.0422 -4.6944 -166.592 6.55275 178.091
RightUpLeg  -43.3248 -2.3429 -3.33998
RightLeg  95.6488 18.0917 -14.1302
RightFoot  -45.5006 6.98913 23.2943
RightToes  -1.16415e-010 -3.18055e-015 -2.98177e-016
Spine  39.432 -2.0123 8.59093
Spine1  -2.52316 1.47925 -15.5239
HEad  -28.1347 -6.46931 0.850423
LeftShoulder1  -3.88251e-019 9.70628e-020 -3.87848e-018
LeftArm  -27.3169 53.7968 -50.2318
LeftForeArm  -12.9044 -34.8075 7.19592
LeftHand  -4.91797 -8.58443 40.5754
RightShoulder  3.23834 7.67697 16.4233
RightArm  -9.61525 -28.1491 28.8061
RightForeArm  1.3901 34.2085 -18.8043
RightHand  -1.92664 1.93241 -29.5604
LeftUpLeg  -81.2384 3.38931 -8.71097
LeftLeg  81.5556 -12.4197 13.7259
LeftFoot  -16.4428 -0.0377199 0.221913
LeftToes  1.69338e-011 3.79281e-011 -2.20049e-011
212
root  -1.16602 27.1984 -5.14864 -165.814 6.56229 178.226
RightUpLeg  -42.6356 -2.37457 -3.6789
RightLeg  94.8394 17.7192 -13.1383
RightFoot  -45.4899 7.12504 23.7541
RightToes  -1.16415e-010 -3.18055e-015 -2.98177e-016
Spine  39.4275 -1.80194 7.95474
Spine1  -2.06274 1.61763 -16.0747
HEad  -28.2091 -6.60111 1.00945
LeftShoulder1  -3.88251e-019 9.70628e-020 -3.87848e-018
LeftArm  -28.5638 52.9608 -50.1535
LeftForeArm  -12.2198 -37.7147 8.12924
LeftHand  -4.98933 -8.7293 40.7033
RightShoulder  3.28 7.75847 16.5605
RightArm  -9.08876 -28.3814 29.7146
RightForeArm  2.13148 31.7523 -17.3028
RightHand  -1.76424 1.5844 -28.4441
LeftUpLeg  -81.0126 3.40545 -8.93118
LeftLeg  81.736 -12.4582 13.7671
LeftFoot  -17.6942 -0.0358353 0.297288
LeftToes  1.69338e-011 3.79281e-011 -2.20049e-011
